<mxfile host="app.diagrams.net" modified="2023-09-26T11:32:15.392Z" agent="Mozilla/5.0 (Windows NT 10.0; Win64; x64) AppleWebKit/537.36 (KHTML, like Gecko) Chrome/116.0.0.0 Safari/537.36" etag="jsT-tlHd1bC2gisujNk6" version="21.7.5" type="github">
  <diagram name="PÃ¡gina-1" id="S_eFZF-iFmI1sIyHViNU">
    <mxGraphModel dx="1477" dy="1003" grid="1" gridSize="10" guides="1" tooltips="1" connect="1" arrows="1" fold="1" page="1" pageScale="1" pageWidth="827" pageHeight="1169" math="0" shadow="0">
      <root>
        <mxCell id="0" />
        <mxCell id="1" parent="0" />
        <mxCell id="XWve44ungLpXWbqipeCS-1" value="Usuario" style="swimlane;whiteSpace=wrap;html=1;" parent="1" vertex="1">
          <mxGeometry x="60" y="50" width="200" height="110" as="geometry" />
        </mxCell>
        <mxCell id="XWve44ungLpXWbqipeCS-10" value="Nome: Leonardo Guerra" style="text;html=1;align=center;verticalAlign=middle;resizable=0;points=[];autosize=1;strokeColor=none;fillColor=none;" parent="XWve44ungLpXWbqipeCS-1" vertex="1">
          <mxGeometry y="20" width="150" height="30" as="geometry" />
        </mxCell>
        <mxCell id="XWve44ungLpXWbqipeCS-11" value="&lt;span style=&quot;color: rgb(0, 0, 0); font-family: Helvetica; font-size: 12px; font-style: normal; font-variant-ligatures: normal; font-variant-caps: normal; font-weight: 400; letter-spacing: normal; orphans: 2; text-align: center; text-indent: 0px; text-transform: none; widows: 2; word-spacing: 0px; -webkit-text-stroke-width: 0px; background-color: rgb(251, 251, 251); text-decoration-thickness: initial; text-decoration-style: initial; text-decoration-color: initial; float: none; display: inline !important;&quot;&gt;Email:leonardo@gmail.com&lt;/span&gt;" style="text;whiteSpace=wrap;html=1;" parent="XWve44ungLpXWbqipeCS-1" vertex="1">
          <mxGeometry x="10" y="50" width="160" height="40" as="geometry" />
        </mxCell>
        <mxCell id="XWve44ungLpXWbqipeCS-12" value="&lt;span style=&quot;color: rgb(0, 0, 0); font-family: Helvetica; font-size: 12px; font-style: normal; font-variant-ligatures: normal; font-variant-caps: normal; font-weight: 400; letter-spacing: normal; orphans: 2; text-align: center; text-indent: 0px; text-transform: none; widows: 2; word-spacing: 0px; -webkit-text-stroke-width: 0px; background-color: rgb(251, 251, 251); text-decoration-thickness: initial; text-decoration-style: initial; text-decoration-color: initial; float: none; display: inline !important;&quot;&gt;Senha: 6789&lt;/span&gt;" style="text;whiteSpace=wrap;html=1;" parent="XWve44ungLpXWbqipeCS-1" vertex="1">
          <mxGeometry x="10" y="80" width="160" height="40" as="geometry" />
        </mxCell>
        <mxCell id="XWve44ungLpXWbqipeCS-2" value="Interface" style="swimlane;whiteSpace=wrap;html=1;" parent="1" vertex="1">
          <mxGeometry x="390" y="50" width="200" height="130" as="geometry" />
        </mxCell>
        <mxCell id="XWve44ungLpXWbqipeCS-13" value="&lt;span style=&quot;color: rgb(0, 0, 0); font-family: Helvetica; font-size: 12px; font-style: normal; font-variant-ligatures: normal; font-variant-caps: normal; font-weight: 400; letter-spacing: normal; orphans: 2; text-align: center; text-indent: 0px; text-transform: none; widows: 2; word-spacing: 0px; -webkit-text-stroke-width: 0px; background-color: rgb(251, 251, 251); text-decoration-thickness: initial; text-decoration-style: initial; text-decoration-color: initial; float: none; display: inline !important;&quot;&gt;Nome do app: CleanBot&lt;/span&gt;" style="text;whiteSpace=wrap;html=1;" parent="XWve44ungLpXWbqipeCS-2" vertex="1">
          <mxGeometry x="10" y="30" width="160" height="40" as="geometry" />
        </mxCell>
        <mxCell id="XWve44ungLpXWbqipeCS-14" value="&lt;span style=&quot;color: rgb(0, 0, 0); font-family: Helvetica; font-size: 12px; font-style: normal; font-variant-ligatures: normal; font-variant-caps: normal; font-weight: 400; letter-spacing: normal; orphans: 2; text-align: center; text-indent: 0px; text-transform: none; widows: 2; word-spacing: 0px; -webkit-text-stroke-width: 0px; background-color: rgb(251, 251, 251); text-decoration-thickness: initial; text-decoration-style: initial; text-decoration-color: initial; float: none; display: inline !important;&quot;&gt;Versao : 2.1.6&lt;/span&gt;" style="text;whiteSpace=wrap;html=1;" parent="XWve44ungLpXWbqipeCS-2" vertex="1">
          <mxGeometry x="10" y="60" width="160" height="40" as="geometry" />
        </mxCell>
        <mxCell id="XWve44ungLpXWbqipeCS-15" value="&lt;span style=&quot;color: rgb(0, 0, 0); font-family: Helvetica; font-size: 12px; font-style: normal; font-variant-ligatures: normal; font-variant-caps: normal; font-weight: 400; letter-spacing: normal; orphans: 2; text-align: center; text-indent: 0px; text-transform: none; widows: 2; word-spacing: 0px; -webkit-text-stroke-width: 0px; background-color: rgb(251, 251, 251); text-decoration-thickness: initial; text-decoration-style: initial; text-decoration-color: initial; float: none; display: inline !important;&quot;&gt;Usuario : leozinho15&lt;/span&gt;" style="text;whiteSpace=wrap;html=1;" parent="XWve44ungLpXWbqipeCS-2" vertex="1">
          <mxGeometry x="10" y="90" width="160" height="40" as="geometry" />
        </mxCell>
        <mxCell id="XWve44ungLpXWbqipeCS-3" value="RoboLimpeza" style="swimlane;whiteSpace=wrap;html=1;" parent="1" vertex="1">
          <mxGeometry x="670" y="50" width="200" height="130" as="geometry" />
        </mxCell>
        <mxCell id="XWve44ungLpXWbqipeCS-16" value="&lt;span style=&quot;color: rgb(0, 0, 0); font-family: Helvetica; font-size: 12px; font-style: normal; font-variant-ligatures: normal; font-variant-caps: normal; font-weight: 400; letter-spacing: normal; orphans: 2; text-align: center; text-indent: 0px; text-transform: none; widows: 2; word-spacing: 0px; -webkit-text-stroke-width: 0px; background-color: rgb(251, 251, 251); text-decoration-thickness: initial; text-decoration-style: initial; text-decoration-color: initial; float: none; display: inline !important;&quot;&gt;Estado : Ligado&lt;/span&gt;" style="text;whiteSpace=wrap;html=1;" parent="XWve44ungLpXWbqipeCS-3" vertex="1">
          <mxGeometry x="10" y="35" width="160" height="40" as="geometry" />
        </mxCell>
        <mxCell id="XWve44ungLpXWbqipeCS-17" value="Bateria : 87%&amp;nbsp;" style="text;whiteSpace=wrap;html=1;" parent="XWve44ungLpXWbqipeCS-3" vertex="1">
          <mxGeometry x="10" y="60" width="160" height="40" as="geometry" />
        </mxCell>
        <mxCell id="XWve44ungLpXWbqipeCS-18" value="Mapa : Sala do Diretor" style="text;whiteSpace=wrap;html=1;" parent="XWve44ungLpXWbqipeCS-3" vertex="1">
          <mxGeometry x="10" y="90" width="160" height="40" as="geometry" />
        </mxCell>
        <mxCell id="XWve44ungLpXWbqipeCS-4" value="ModoLimpeza" style="swimlane;whiteSpace=wrap;html=1;" parent="1" vertex="1">
          <mxGeometry x="930" y="50" width="200" height="70" as="geometry" />
        </mxCell>
        <mxCell id="XWve44ungLpXWbqipeCS-25" value="&lt;span style=&quot;color: rgb(0, 0, 0); font-family: Helvetica; font-size: 12px; font-style: normal; font-variant-ligatures: normal; font-variant-caps: normal; font-weight: 400; letter-spacing: normal; orphans: 2; text-align: left; text-indent: 0px; text-transform: none; widows: 2; word-spacing: 0px; -webkit-text-stroke-width: 0px; background-color: rgb(251, 251, 251); text-decoration-thickness: initial; text-decoration-style: initial; text-decoration-color: initial; float: none; display: inline !important;&quot;&gt;Tipo de limpeza : Limpeza leve&lt;/span&gt;" style="text;whiteSpace=wrap;html=1;" parent="XWve44ungLpXWbqipeCS-4" vertex="1">
          <mxGeometry x="10" y="30" width="180" height="40" as="geometry" />
        </mxCell>
        <mxCell id="XWve44ungLpXWbqipeCS-5" value="ConfigurarPrefencias" style="swimlane;whiteSpace=wrap;html=1;" parent="1" vertex="1">
          <mxGeometry x="60" y="270" width="200" height="80" as="geometry" />
        </mxCell>
        <mxCell id="XWve44ungLpXWbqipeCS-20" value="&lt;span style=&quot;color: rgb(0, 0, 0); font-family: Helvetica; font-size: 12px; font-style: normal; font-variant-ligatures: normal; font-variant-caps: normal; font-weight: 400; letter-spacing: normal; orphans: 2; text-align: left; text-indent: 0px; text-transform: none; widows: 2; word-spacing: 0px; -webkit-text-stroke-width: 0px; background-color: rgb(251, 251, 251); text-decoration-thickness: initial; text-decoration-style: initial; text-decoration-color: initial; float: none; display: inline !important;&quot;&gt;Limpeza&amp;nbsp; : limpeza leve em piso de ceramica&lt;/span&gt;" style="text;whiteSpace=wrap;html=1;" parent="XWve44ungLpXWbqipeCS-5" vertex="1">
          <mxGeometry x="10" y="30" width="170" height="40" as="geometry" />
        </mxCell>
        <mxCell id="XWve44ungLpXWbqipeCS-6" value="Ambiente" style="swimlane;whiteSpace=wrap;html=1;startSize=23;" parent="1" vertex="1">
          <mxGeometry x="380" y="270" width="210" height="150" as="geometry" />
        </mxCell>
        <mxCell id="XWve44ungLpXWbqipeCS-21" value="&lt;span style=&quot;color: rgb(0, 0, 0); font-family: Helvetica; font-size: 12px; font-style: normal; font-variant-ligatures: normal; font-variant-caps: normal; font-weight: 400; letter-spacing: normal; orphans: 2; text-align: left; text-indent: 0px; text-transform: none; widows: 2; word-spacing: 0px; -webkit-text-stroke-width: 0px; background-color: rgb(251, 251, 251); text-decoration-thickness: initial; text-decoration-style: initial; text-decoration-color: initial; float: none; display: inline !important;&quot;&gt;Nome do ambiente : Sala do Diretor&lt;/span&gt;" style="text;whiteSpace=wrap;html=1;" parent="XWve44ungLpXWbqipeCS-6" vertex="1">
          <mxGeometry x="10" y="30" width="200" height="40" as="geometry" />
        </mxCell>
        <mxCell id="XWve44ungLpXWbqipeCS-22" value="&lt;span style=&quot;color: rgb(0, 0, 0); font-family: Helvetica; font-size: 12px; font-style: normal; font-variant-ligatures: normal; font-variant-caps: normal; font-weight: 400; letter-spacing: normal; orphans: 2; text-align: left; text-indent: 0px; text-transform: none; widows: 2; word-spacing: 0px; -webkit-text-stroke-width: 0px; background-color: rgb(251, 251, 251); text-decoration-thickness: initial; text-decoration-style: initial; text-decoration-color: initial; float: none; display: inline !important;&quot;&gt;Tipo de superficie: Ceramica&lt;/span&gt;" style="text;whiteSpace=wrap;html=1;" parent="XWve44ungLpXWbqipeCS-6" vertex="1">
          <mxGeometry x="10" y="60" width="180" height="40" as="geometry" />
        </mxCell>
        <mxCell id="XWve44ungLpXWbqipeCS-23" value="&lt;span style=&quot;color: rgb(0, 0, 0); font-family: Helvetica; font-size: 12px; font-style: normal; font-variant-ligatures: normal; font-variant-caps: normal; font-weight: 400; letter-spacing: normal; orphans: 2; text-align: left; text-indent: 0px; text-transform: none; widows: 2; word-spacing: 0px; -webkit-text-stroke-width: 0px; background-color: rgb(251, 251, 251); text-decoration-thickness: initial; text-decoration-style: initial; text-decoration-color: initial; float: none; display: inline !important;&quot;&gt;DimensÃ£o : 8,30 m no eixo x e 2,45 no eixo y&lt;/span&gt;" style="text;whiteSpace=wrap;html=1;" parent="XWve44ungLpXWbqipeCS-6" vertex="1">
          <mxGeometry x="10" y="100" width="200" height="40" as="geometry" />
        </mxCell>
        <mxCell id="XWve44ungLpXWbqipeCS-7" value="Sistema" style="swimlane;whiteSpace=wrap;html=1;" parent="1" vertex="1">
          <mxGeometry x="670" y="270" width="200" height="80" as="geometry" />
        </mxCell>
        <mxCell id="XWve44ungLpXWbqipeCS-24" value="&lt;span style=&quot;color: rgb(0, 0, 0); font-family: Helvetica; font-size: 12px; font-style: normal; font-variant-ligatures: normal; font-variant-caps: normal; font-weight: 400; letter-spacing: normal; orphans: 2; text-align: left; text-indent: 0px; text-transform: none; widows: 2; word-spacing: 0px; -webkit-text-stroke-width: 0px; background-color: rgb(251, 251, 251); text-decoration-thickness: initial; text-decoration-style: initial; text-decoration-color: initial; float: none; display: inline !important;&quot;&gt;Aplicativo : SIstema funcionando&lt;/span&gt;" style="text;whiteSpace=wrap;html=1;" parent="XWve44ungLpXWbqipeCS-7" vertex="1">
          <mxGeometry x="10" y="30" width="190" height="40" as="geometry" />
        </mxCell>
        <mxCell id="XWve44ungLpXWbqipeCS-26" value="" style="endArrow=none;html=1;rounded=0;exitX=1;exitY=0.25;exitDx=0;exitDy=0;" parent="1" source="XWve44ungLpXWbqipeCS-3" edge="1">
          <mxGeometry width="50" height="50" relative="1" as="geometry">
            <mxPoint x="850" y="40" as="sourcePoint" />
            <mxPoint x="930" y="83" as="targetPoint" />
          </mxGeometry>
        </mxCell>
        <mxCell id="XWve44ungLpXWbqipeCS-27" value="" style="endArrow=none;html=1;rounded=0;entryX=0.5;entryY=1;entryDx=0;entryDy=0;exitX=0.447;exitY=-0.013;exitDx=0;exitDy=0;exitPerimeter=0;" parent="1" source="XWve44ungLpXWbqipeCS-7" target="XWve44ungLpXWbqipeCS-18" edge="1">
          <mxGeometry width="50" height="50" relative="1" as="geometry">
            <mxPoint x="850" y="40" as="sourcePoint" />
            <mxPoint x="900" y="-10" as="targetPoint" />
          </mxGeometry>
        </mxCell>
        <mxCell id="XWve44ungLpXWbqipeCS-28" value="" style="endArrow=none;html=1;rounded=0;" parent="1" edge="1">
          <mxGeometry width="50" height="50" relative="1" as="geometry">
            <mxPoint x="670" y="120" as="sourcePoint" />
            <mxPoint x="590" y="120" as="targetPoint" />
          </mxGeometry>
        </mxCell>
        <mxCell id="XWve44ungLpXWbqipeCS-29" value="" style="endArrow=none;html=1;rounded=0;exitX=0.5;exitY=0;exitDx=0;exitDy=0;" parent="1" source="XWve44ungLpXWbqipeCS-5" edge="1">
          <mxGeometry width="50" height="50" relative="1" as="geometry">
            <mxPoint x="220" y="370" as="sourcePoint" />
            <mxPoint x="160" y="160" as="targetPoint" />
          </mxGeometry>
        </mxCell>
        <mxCell id="XWve44ungLpXWbqipeCS-30" value="" style="endArrow=none;html=1;rounded=0;" parent="1" edge="1">
          <mxGeometry width="50" height="50" relative="1" as="geometry">
            <mxPoint x="260" y="120" as="sourcePoint" />
            <mxPoint x="390" y="120" as="targetPoint" />
          </mxGeometry>
        </mxCell>
        <mxCell id="XWve44ungLpXWbqipeCS-31" value="" style="endArrow=none;html=1;rounded=0;entryX=0;entryY=1;entryDx=0;entryDy=0;exitX=1;exitY=0;exitDx=0;exitDy=0;" parent="1" source="XWve44ungLpXWbqipeCS-6" target="XWve44ungLpXWbqipeCS-3" edge="1">
          <mxGeometry width="50" height="50" relative="1" as="geometry">
            <mxPoint x="560" y="370" as="sourcePoint" />
            <mxPoint x="660" y="180" as="targetPoint" />
          </mxGeometry>
        </mxCell>
      </root>
    </mxGraphModel>
  </diagram>
</mxfile>
